<svg width="27" height="27" viewBox="0 0 27 27" fill="none" xmlns="http://www.w3.org/2000/svg">
<path id="Vector" d="M16.9445 15.8484C18.3366 17.9025 19.7342 19.9679 20.8219 22.203C21.0958 22.7653 21.3394 23.4723 20.9768 23.9788C20.6807 24.3936 20.0718 24.4771 19.5958 24.3017C19.1198 24.1236 18.7489 23.745 18.4141 23.3609C16.8808 21.5962 15.7627 19.5142 14.6584 17.4488C14.3125 20.0319 14.0413 22.7263 13.3854 25.34C13.294 25.7046 13.1916 26.0748 12.9896 26.3893C12.7848 26.7039 12.461 26.9627 12.0901 26.9961C11.6086 27.0407 11.1574 26.6955 10.9305 26.2669C10.7036 25.8382 10.651 25.34 10.6178 24.8556C10.4213 22.1056 10.5845 19.3416 10.7506 16.5916C9.10942 18.5984 7.5236 20.7333 5.56415 22.4953C5.10749 22.9072 4.49862 23.3192 3.9285 23.0937C3.49676 22.9239 3.26705 22.4229 3.27258 21.9581C3.27812 21.4932 3.47185 21.0506 3.67112 20.6331C4.73941 18.3869 6.08169 16.2826 7.41843 14.1839C5.23757 13.5743 3.11483 12.8617 1.15261 11.843C0.621234 11.5674 0.0345041 11.1694 0.00129301 10.5681C-0.0263829 10.056 0.394289 9.60228 0.873081 9.43249C1.35464 9.25991 1.88325 9.30724 2.38972 9.36847C4.25231 9.59115 6.09829 9.97526 7.89722 10.5125C7.10569 8.39148 6.34737 6.20924 5.8326 3.96856C5.75234 3.62619 5.68038 3.27269 5.72466 2.92476C5.76894 2.57683 5.94884 2.22611 6.26434 2.07024C6.6269 1.8921 7.07802 2.01458 7.39076 2.27065C7.70349 2.52673 7.90276 2.89136 8.08818 3.25321C9.15371 5.32967 9.95077 7.5314 10.7755 9.72198C10.8419 7.07491 10.9194 4.36659 11.877 1.90045C12.1095 1.29922 12.4139 0.695212 12.9315 0.316661C13.449 -0.0618893 14.2322 -0.139828 14.7055 0.297175C15.1206 0.681292 15.1732 1.31037 15.1732 1.87541C15.1787 4.59206 14.5948 7.27252 14.2129 9.98639C16.0505 7.59819 18.248 5.48834 20.7056 3.75146C21.0931 3.47589 21.5082 3.20312 21.9787 3.14745C22.4492 3.09178 22.9889 3.31724 23.1356 3.77094C23.2878 4.23856 22.9833 4.72288 22.6927 5.12091C20.9934 7.43954 19.1751 9.66909 17.1935 11.8764C19.856 11.868 22.5295 11.8597 25.1725 12.1909C25.571 12.241 25.9779 12.3022 26.3321 12.4943C26.6864 12.6864 26.9825 13.0371 26.9991 13.4407C27.0185 13.8721 26.7168 14.2674 26.346 14.4817C25.9723 14.696 25.5378 14.7656 25.1116 14.8296C22.4021 15.2304 19.6761 15.5143 16.9389 15.8539L16.9445 15.8484Z" fill="#C2FF3E"/>
</svg>
